<svg width="2406" height="1082" viewBox="0 0 2406 1082" fill="none" xmlns="http://www.w3.org/2000/svg">
<path d="M800.546 503.536V549.684H880.332V585.268H800.546V631.416H889.228V667H763.016V467.952H889.228V503.536H800.546ZM916.572 530.78H950.766V548.572H952.99C957.253 541.9 962.998 536.525 970.226 532.448C977.639 528.371 985.794 526.332 994.69 526.332C1005.07 526.332 1013.78 528.741 1020.82 533.56C1027.86 538.379 1032.87 544.309 1035.83 551.352C1040.1 544.495 1046.12 538.657 1053.9 533.838C1061.69 528.834 1071.14 526.332 1082.26 526.332C1090.6 526.332 1097.83 527.722 1103.94 530.502C1110.06 533.097 1115.06 536.803 1118.96 541.622C1123.03 546.441 1126.09 552.279 1128.13 559.136C1130.17 565.808 1131.19 573.129 1131.19 581.098V667H1094.77V587.77C1094.77 569.237 1087.17 559.97 1071.97 559.97C1067.16 559.97 1062.89 561.082 1059.19 563.306C1055.48 565.345 1052.33 568.217 1049.73 571.924C1047.32 575.445 1045.38 579.708 1043.9 584.712C1042.6 589.716 1041.95 595.091 1041.95 600.836V667H1005.53V587.77C1005.53 569.237 997.563 559.97 981.624 559.97C976.991 559.97 972.913 561.082 969.392 563.306C965.871 565.345 962.905 568.217 960.496 571.924C958.087 575.445 956.233 579.708 954.936 584.712C953.639 589.716 952.99 595.091 952.99 600.836V667H916.572V530.78ZM1160.07 530.78H1194.26V547.182H1196.49C1199.82 541.437 1205.01 536.525 1212.05 532.448C1219.1 528.371 1227.81 526.332 1238.19 526.332C1246.9 526.332 1255.14 528.185 1262.93 531.892C1270.9 535.413 1277.85 540.417 1283.78 546.904C1289.89 553.205 1294.71 560.804 1298.23 569.7C1301.75 578.596 1303.52 588.326 1303.52 598.89C1303.52 609.454 1301.75 619.184 1298.23 628.08C1294.71 636.976 1289.89 644.667 1283.78 651.154C1277.85 657.455 1270.9 662.459 1262.93 666.166C1255.14 669.687 1246.9 671.448 1238.19 671.448C1227.81 671.448 1219.1 669.409 1212.05 665.332C1205.01 661.255 1199.82 656.343 1196.49 650.598H1194.26L1196.49 670.058V727.048H1160.07V530.78ZM1230.68 637.81C1235.5 637.81 1240.04 636.883 1244.3 635.03C1248.75 633.177 1252.64 630.582 1255.98 627.246C1259.31 623.91 1262 619.833 1264.04 615.014C1266.08 610.195 1267.1 604.821 1267.1 598.89C1267.1 592.959 1266.08 587.585 1264.04 582.766C1262 577.947 1259.31 573.87 1255.98 570.534C1252.64 567.198 1248.75 564.603 1244.3 562.75C1240.04 560.897 1235.5 559.97 1230.68 559.97C1225.86 559.97 1221.23 560.897 1216.78 562.75C1212.52 564.418 1208.72 566.92 1205.38 570.256C1202.05 573.592 1199.36 577.669 1197.32 582.488C1195.28 587.307 1194.26 592.774 1194.26 598.89C1194.26 605.006 1195.28 610.473 1197.32 615.292C1199.36 620.111 1202.05 624.188 1205.38 627.524C1208.72 630.86 1212.52 633.455 1216.78 635.308C1221.23 636.976 1225.86 637.81 1230.68 637.81ZM1391.28 526.332C1401.84 526.332 1411.48 528.185 1420.19 531.892C1429.09 535.413 1436.69 540.417 1442.99 546.904C1449.48 553.205 1454.48 560.804 1458 569.7C1461.71 578.596 1463.56 588.326 1463.56 598.89C1463.56 609.454 1461.71 619.184 1458 628.08C1454.48 636.976 1449.48 644.667 1442.99 651.154C1436.69 657.455 1429.09 662.459 1420.19 666.166C1411.48 669.687 1401.84 671.448 1391.28 671.448C1380.72 671.448 1370.99 669.687 1362.09 666.166C1353.38 662.459 1345.78 657.455 1339.29 651.154C1332.99 644.667 1327.99 636.976 1324.28 628.08C1320.76 619.184 1319 609.454 1319 598.89C1319 588.326 1320.76 578.596 1324.28 569.7C1327.99 560.804 1332.99 553.205 1339.29 546.904C1345.78 540.417 1353.38 535.413 1362.09 531.892C1370.99 528.185 1380.72 526.332 1391.28 526.332ZM1391.28 637.81C1395.91 637.81 1400.36 636.976 1404.62 635.308C1409.07 633.455 1412.96 630.86 1416.3 627.524C1419.64 624.188 1422.23 620.111 1424.08 615.292C1426.12 610.473 1427.14 605.006 1427.14 598.89C1427.14 592.774 1426.12 587.307 1424.08 582.488C1422.23 577.669 1419.64 573.592 1416.3 570.256C1412.96 566.92 1409.07 564.418 1404.62 562.75C1400.36 560.897 1395.91 559.97 1391.28 559.97C1386.46 559.97 1381.92 560.897 1377.66 562.75C1373.4 564.418 1369.6 566.92 1366.26 570.256C1362.92 573.592 1360.24 577.669 1358.2 582.488C1356.35 587.307 1355.42 592.774 1355.42 598.89C1355.42 605.006 1356.35 610.473 1358.2 615.292C1360.24 620.111 1362.92 624.188 1366.26 627.524C1369.6 630.86 1373.4 633.455 1377.66 635.308C1381.92 636.976 1386.46 637.81 1391.28 637.81ZM1469.79 530.78H1510.66L1533.17 616.126H1535.12L1562.09 530.78H1599.62L1626.86 616.126H1628.81L1651.05 530.78H1691.36L1647.71 667H1608.51L1581.27 581.098H1579.32L1552.08 667H1513.44L1469.79 530.78ZM1834.23 634.196C1827.92 645.316 1819.4 654.305 1808.65 661.162C1798.09 668.019 1785.11 671.448 1769.73 671.448C1759.35 671.448 1749.71 669.687 1740.82 666.166C1732.11 662.459 1724.51 657.363 1718.02 650.876C1711.54 644.389 1706.44 636.791 1702.73 628.08C1699.21 619.184 1697.45 609.454 1697.45 598.89C1697.45 589.067 1699.21 579.801 1702.73 571.09C1706.25 562.194 1711.16 554.503 1717.47 548.016C1723.77 541.344 1731.18 536.062 1739.71 532.17C1748.42 528.278 1757.96 526.332 1768.34 526.332C1779.27 526.332 1789 528.185 1797.53 531.892C1806.06 535.413 1813.19 540.417 1818.94 546.904C1824.68 553.205 1829.04 560.711 1832 569.422C1834.97 578.133 1836.45 587.585 1836.45 597.778C1836.45 599.075 1836.45 600.187 1836.45 601.114C1836.26 602.226 1836.17 603.245 1836.17 604.172C1835.99 605.099 1835.89 606.118 1835.89 607.23H1733.31C1734.05 612.79 1735.54 617.609 1737.76 621.686C1740.17 625.578 1743.04 628.914 1746.38 631.694C1749.9 634.289 1753.7 636.235 1757.78 637.532C1761.85 638.644 1766.02 639.2 1770.29 639.2C1778.63 639.2 1785.48 637.347 1790.86 633.64C1796.42 629.748 1800.77 624.929 1803.92 619.184L1834.23 634.196ZM1801.14 581.376C1800.96 578.967 1800.12 576.279 1798.64 573.314C1797.34 570.349 1795.31 567.569 1792.53 564.974C1789.93 562.379 1786.6 560.248 1782.52 558.58C1778.63 556.912 1773.9 556.078 1768.34 556.078C1760.56 556.078 1753.7 558.302 1747.77 562.75C1741.84 567.198 1737.67 573.407 1735.26 581.376H1801.14ZM1859.71 530.78H1893.9V549.684H1896.13C1897.79 546.348 1900.02 543.29 1902.8 540.51C1905.58 537.73 1908.64 535.321 1911.97 533.282C1915.49 531.243 1919.2 529.668 1923.09 528.556C1927.17 527.444 1931.15 526.888 1935.05 526.888C1939.87 526.888 1943.94 527.351 1947.28 528.278C1950.8 529.205 1953.77 530.409 1956.17 531.892L1946.44 564.974C1944.22 563.862 1941.72 563.028 1938.94 562.472C1936.34 561.731 1933.1 561.36 1929.21 561.36C1924.2 561.36 1919.66 562.379 1915.59 564.418C1911.51 566.271 1907.99 568.959 1905.02 572.48C1902.24 576.001 1900.02 580.171 1898.35 584.99C1896.87 589.623 1896.13 594.72 1896.13 600.28V667H1859.71V530.78ZM2035.47 467.952H2078.28L2153.06 667H2111.64L2095.24 619.462H2018.51L2002.11 667H1960.69L2035.47 467.952ZM2083.01 584.99L2065.21 535.228L2057.99 511.042H2055.76L2048.53 535.228L2030.74 584.99H2083.01ZM2171.92 667V467.952H2208.33V667H2171.92ZM2239.52 667V467.952H2275.93V667H2239.52Z" fill="#336874"/>
<circle cx="373" cy="540" r="90" fill="#FFF7E6"/>
<path fill-rule="evenodd" clip-rule="evenodd" d="M566.947 540.881C566.947 648.061 479.89 734.947 372.5 734.947C265.11 734.947 178.053 648.061 178.053 540.881C178.053 433.702 265.11 346.816 372.5 346.816C479.89 346.816 566.947 433.702 566.947 540.881ZM380.125 548.126H458.364C454.879 589.609 421.746 622.702 380.125 626.335V548.126ZM380.125 533.637H458.364C454.88 492.154 421.746 459.061 380.125 455.427V533.637ZM365.637 455.364V533.637H286.636C290.141 491.901 323.659 458.657 365.637 455.364ZM365.637 548.126V626.399C323.659 623.105 290.141 589.862 286.636 548.126H365.637Z" fill="#0F4D5C" fill-opacity="0.85098"/>
<path fill-rule="evenodd" clip-rule="evenodd" d="M395.136 422.966C390.01 403.179 384.098 380.36 372.344 363.592C360.805 380.856 354.554 404.361 349.206 424.469C348.047 428.828 346.93 433.026 345.811 436.967H360.554C363.312 427.076 366.741 416.672 372.119 408.581C377.738 416.641 381.091 427.062 383.77 436.967H398.876C397.626 432.578 396.405 427.865 395.136 422.966Z" fill="#FFF7E6"/>
<path fill-rule="evenodd" clip-rule="evenodd" d="M349.551 657.444C354.678 677.231 360.59 700.05 372.344 716.818C383.883 699.554 390.134 676.049 395.482 655.941C396.641 651.582 397.758 647.384 398.876 643.443H384.133C381.376 653.334 377.947 663.738 372.569 671.829C366.949 663.769 363.596 653.348 360.918 643.443H345.812C347.061 647.832 348.282 652.545 349.551 657.444Z" fill="#FFF7E6"/>
<path fill-rule="evenodd" clip-rule="evenodd" d="M489.583 562.998C509.37 557.871 532.189 551.959 548.958 540.205C531.693 528.666 508.188 522.415 488.08 517.067C483.722 515.908 479.523 514.791 475.582 513.673L475.582 528.416C485.473 531.173 495.878 534.602 503.968 539.98C495.908 545.6 485.488 548.953 475.582 551.631V566.737C479.971 565.488 484.684 564.267 489.583 562.998Z" fill="#FFF7E6"/>
<path fill-rule="evenodd" clip-rule="evenodd" d="M255.106 517.412C235.319 522.539 212.5 528.451 195.731 540.205C212.996 551.744 236.501 557.995 256.609 563.343C260.967 564.502 265.166 565.619 269.107 566.737V551.994C259.216 549.237 248.812 545.808 240.721 540.43C248.781 534.81 259.201 531.457 269.107 528.779V513.673C264.718 514.922 260.005 516.143 255.106 517.412Z" fill="#FFF7E6"/>
<path fill-rule="evenodd" clip-rule="evenodd" d="M255.105 517.413C235.318 522.539 212.499 528.451 195.73 540.205C212.995 551.744 236.5 557.995 256.608 563.343C260.966 564.502 265.165 565.619 269.106 566.738V551.994C259.215 549.237 248.811 545.808 240.72 540.43C248.78 534.811 259.2 531.458 269.106 528.779V513.673C264.717 514.922 260.004 516.143 255.105 517.413Z" fill="#FFF7E6"/>
<path fill-rule="evenodd" clip-rule="evenodd" d="M489.582 562.998C509.369 557.871 532.189 551.959 548.957 540.205C531.692 528.666 508.187 522.415 488.079 517.067C483.721 515.908 479.522 514.792 475.581 513.673V528.416C485.473 531.173 495.877 534.602 503.968 539.98C495.907 545.6 485.487 548.953 475.581 551.631V566.738C479.971 565.488 484.684 564.267 489.582 562.998Z" fill="#FFF7E6"/>
<path fill-rule="evenodd" clip-rule="evenodd" d="M395.136 422.966C390.009 403.179 384.097 380.36 372.343 363.591C360.804 380.856 354.553 404.361 349.205 424.469C348.046 428.827 346.929 433.026 345.811 436.967H360.553C363.311 427.076 366.74 416.672 372.118 408.581C377.737 416.641 381.09 427.061 383.769 436.967H398.875C397.626 432.578 396.405 427.865 395.136 422.966Z" fill="#FFF7E6"/>
<path fill-rule="evenodd" clip-rule="evenodd" d="M349.55 657.444C354.677 677.231 360.589 700.05 372.343 716.818C383.882 699.554 390.133 676.049 395.481 655.941C396.64 651.582 397.757 647.384 398.875 643.443H384.132C381.375 653.334 377.946 663.738 372.568 671.829C366.948 663.768 363.595 653.348 360.917 643.443H345.811C347.06 647.832 348.281 652.545 349.55 657.444Z" fill="#FFF7E6"/>
<path fill-rule="evenodd" clip-rule="evenodd" d="M333.463 427.277C319.13 412.704 302.6 395.898 284.037 387.253C282.676 407.974 289.015 431.456 294.438 451.544C295.613 455.898 296.745 460.092 297.747 464.065L310.515 456.693C307.958 446.748 305.725 436.024 306.337 426.328C315.234 430.498 323.348 437.846 330.62 445.085L343.702 437.532C340.426 434.356 337.012 430.885 333.463 427.277Z" fill="#FFF7E6"/>
<path fill-rule="evenodd" clip-rule="evenodd" d="M411.224 653.133C425.557 667.706 442.087 684.512 460.651 693.157C462.011 672.436 455.672 648.954 450.25 628.866C449.074 624.512 447.942 620.318 446.941 616.346L434.173 623.717C436.73 633.662 438.963 644.386 438.351 654.082C429.454 649.912 421.34 642.564 414.068 635.325L400.985 642.878C404.262 646.054 407.676 649.525 411.224 653.133Z" fill="#FFF7E6"/>
<path fill-rule="evenodd" clip-rule="evenodd" d="M485.272 501.324C499.845 486.991 516.651 470.462 525.296 451.898C504.575 450.538 481.093 456.876 461.005 462.299C456.651 463.474 452.457 464.607 448.484 465.608L455.856 478.376C465.801 475.819 476.525 473.586 486.221 474.198C482.051 483.095 474.703 491.209 467.464 498.481L475.017 511.564C478.193 508.287 481.664 504.873 485.272 501.324Z" fill="#FFF7E6"/>
<path fill-rule="evenodd" clip-rule="evenodd" d="M259.416 579.085C244.843 593.418 228.037 609.948 219.392 628.512C240.113 629.872 263.595 623.533 283.683 618.111C288.036 616.935 292.231 615.803 296.203 614.802L288.832 602.034C278.887 604.591 268.162 606.824 258.467 606.212C262.637 597.315 269.985 589.201 277.224 581.929L269.671 568.846C266.495 572.123 263.024 575.537 259.416 579.085Z" fill="#FFF7E6"/>
<path fill-rule="evenodd" clip-rule="evenodd" d="M282.208 461.846C262.509 456.393 239.791 450.103 219.392 451.898C228.574 470.523 245.805 487.69 260.545 502.375C263.74 505.558 266.817 508.624 269.671 511.564L277.042 498.796C269.855 491.462 262.559 483.291 258.242 474.588C268.032 473.751 278.732 476.058 288.65 478.691L296.203 465.608C291.777 464.496 287.085 463.197 282.208 461.846Z" fill="#FFF7E6"/>
<path fill-rule="evenodd" clip-rule="evenodd" d="M462.479 618.563C482.178 624.017 504.897 630.307 525.296 628.512C516.113 609.887 498.883 592.72 484.143 578.035C480.948 574.852 477.87 571.786 475.017 568.846L467.645 581.614C474.832 588.948 482.128 597.119 486.446 605.822C476.656 606.659 465.955 604.352 456.037 601.719L448.484 614.802C452.91 615.914 457.602 617.213 462.479 618.563Z" fill="#FFF7E6"/>
<path fill-rule="evenodd" clip-rule="evenodd" d="M450.702 450.069C456.156 430.37 462.445 407.652 460.65 387.253C442.025 396.435 424.859 413.666 410.173 428.406C406.99 431.601 403.924 434.679 400.985 437.532L413.752 444.904C421.086 437.717 429.257 430.421 437.96 426.103C438.797 435.893 436.491 446.594 433.857 456.511L446.94 464.065C448.052 459.639 449.351 454.947 450.702 450.069Z" fill="#FFF7E6"/>
<path fill-rule="evenodd" clip-rule="evenodd" d="M293.985 630.341C288.531 650.04 282.242 672.758 284.037 693.157C302.662 683.975 319.828 666.744 334.514 652.004C337.697 648.809 340.763 645.731 343.702 642.878L330.934 635.506C323.601 642.693 315.429 649.99 306.726 654.307C305.89 644.517 308.196 633.816 310.829 623.899L297.747 616.346C296.635 620.772 295.336 625.464 293.985 630.341Z" fill="#FFF7E6"/>
<rect x="360.3" y="282" width="24.4012" height="48.0398" rx="12.2006" fill="#114652"/>
<rect x="360.3" y="750.961" width="24.4012" height="48.0398" rx="12.2006" fill="#114652"/>
<rect x="326.505" y="301.608" width="7.62537" height="32.7891" rx="3.81268" transform="rotate(-10 326.505 301.608)" fill="#114652"/>
<rect x="405.292" y="748.425" width="7.62537" height="32.7891" rx="3.81268" transform="rotate(-10 405.292 748.425)" fill="#114652"/>
<rect x="285.721" y="313.224" width="7.62537" height="32.7891" rx="3.81268" transform="rotate(-20 285.721 313.224)" fill="#114652"/>
<rect x="440.899" y="739.572" width="7.62537" height="32.7891" rx="3.81268" transform="rotate(-20 440.899 739.572)" fill="#114652"/>
<rect x="247.573" y="331.746" width="7.62537" height="32.7891" rx="3.81268" transform="rotate(-30 247.573 331.746)" fill="#114652"/>
<rect x="474.428" y="724.671" width="7.62537" height="32.7891" rx="3.81268" transform="rotate(-30 474.428 724.671)" fill="#114652"/>
<rect x="213.221" y="356.611" width="7.62537" height="32.7891" rx="3.81268" transform="rotate(-40 213.221 356.611)" fill="#114652"/>
<rect x="504.861" y="704.173" width="7.62537" height="32.7891" rx="3.81268" transform="rotate(-40 504.861 704.173)" fill="#114652"/>
<rect x="183.709" y="387.063" width="7.62537" height="32.7891" rx="3.81268" transform="rotate(-50 183.709 387.063)" fill="#114652"/>
<rect x="531.271" y="678.702" width="7.62537" height="32.7891" rx="3.81268" transform="rotate(-50 531.271 678.702)" fill="#114652"/>
<rect x="159.933" y="422.177" width="7.62537" height="32.7891" rx="3.81268" transform="rotate(-60 159.933 422.177)" fill="#114652"/>
<rect x="552.858" y="649.032" width="7.62537" height="32.7891" rx="3.81268" transform="rotate(-60 552.858 649.032)" fill="#114652"/>
<rect x="142.616" y="460.887" width="7.62537" height="32.7891" rx="3.81268" transform="rotate(-70 142.616 460.887)" fill="#114652"/>
<rect x="568.964" y="616.065" width="7.62537" height="32.7891" rx="3.81268" transform="rotate(-70 568.964 616.065)" fill="#114652"/>
<rect x="132.284" y="502.015" width="7.62537" height="32.7891" rx="3.81268" transform="rotate(-80 132.284 502.015)" fill="#114652"/>
<rect x="579.101" y="580.801" width="7.62537" height="32.7891" rx="3.81268" transform="rotate(-80 579.101 580.801)" fill="#114652"/>
<rect x="611.393" y="494.505" width="7.62537" height="32.7891" rx="3.81268" transform="rotate(80 611.393 494.505)" fill="#114652"/>
<rect x="164.576" y="573.292" width="7.62537" height="32.7891" rx="3.81268" transform="rotate(80 164.576 573.292)" fill="#114652"/>
<rect x="599.777" y="453.721" width="7.62537" height="32.7891" rx="3.81268" transform="rotate(70 599.777 453.721)" fill="#114652"/>
<rect x="173.429" y="608.899" width="7.62537" height="32.7891" rx="3.81268" transform="rotate(70 173.429 608.899)" fill="#114652"/>
<rect x="581.255" y="415.573" width="7.62537" height="32.7891" rx="3.81268" transform="rotate(60 581.255 415.573)" fill="#114652"/>
<rect x="188.331" y="642.428" width="7.62537" height="32.7891" rx="3.81268" transform="rotate(60 188.331 642.428)" fill="#114652"/>
<rect x="556.39" y="381.222" width="7.62537" height="32.7891" rx="3.81268" transform="rotate(50 556.39 381.222)" fill="#114652"/>
<rect x="208.828" y="672.861" width="7.62537" height="32.7891" rx="3.81268" transform="rotate(50 208.828 672.861)" fill="#114652"/>
<rect x="525.938" y="351.709" width="7.62537" height="32.7891" rx="3.81268" transform="rotate(40 525.938 351.709)" fill="#114652"/>
<rect x="234.299" y="699.271" width="7.62537" height="32.7891" rx="3.81268" transform="rotate(40 234.299 699.271)" fill="#114652"/>
<rect x="490.824" y="327.934" width="7.62537" height="32.7891" rx="3.81268" transform="rotate(30 490.824 327.934)" fill="#114652"/>
<rect x="263.969" y="720.858" width="7.62537" height="32.7891" rx="3.81268" transform="rotate(30 263.969 720.858)" fill="#114652"/>
<rect x="452.115" y="310.616" width="7.62537" height="32.7891" rx="3.81268" transform="rotate(20 452.115 310.616)" fill="#114652"/>
<rect x="296.937" y="736.964" width="7.62537" height="32.7891" rx="3.81268" transform="rotate(20 296.937 736.964)" fill="#114652"/>
<rect x="410.986" y="300.284" width="7.62537" height="32.7891" rx="3.81268" transform="rotate(10 410.986 300.284)" fill="#114652"/>
<rect x="332.2" y="747.101" width="7.62537" height="32.7891" rx="3.81268" transform="rotate(10 332.2 747.101)" fill="#114652"/>
<rect x="114" y="552.701" width="24.4012" height="48.0398" rx="12.2006" transform="rotate(-90 114 552.701)" fill="#114652"/>
<rect x="582.961" y="552.701" width="24.4012" height="48.0398" rx="12.2006" transform="rotate(-90 582.961 552.701)" fill="#114652"/>
</svg>
