<svg width="683" height="727" viewBox="0 0 683 727" fill="none" xmlns="http://www.w3.org/2000/svg">
<path fill-rule="evenodd" clip-rule="evenodd" d="M535.947 363.881C535.947 471.061 448.89 557.947 341.5 557.947C234.11 557.947 147.053 471.061 147.053 363.881C147.053 256.702 234.11 169.816 341.5 169.816C448.89 169.816 535.947 256.702 535.947 363.881ZM349.125 371.126H427.364C423.88 412.609 390.746 445.702 349.125 449.335V371.126ZM349.125 356.637H427.364C423.88 315.154 390.746 282.061 349.125 278.427V356.637ZM334.637 278.364V356.637H255.636C259.141 314.901 292.659 281.657 334.637 278.364ZM334.637 371.126V449.399C292.659 446.105 259.142 412.862 255.636 371.126H334.637ZM348.767 480.168C346.801 485.432 344.468 490.466 341.568 494.828C335.949 486.768 332.596 476.348 329.918 466.443L329.917 466.443H314.811C316.061 470.832 317.282 475.545 318.551 480.444L318.551 480.444C323.677 500.231 329.589 523.05 341.343 539.818L341.344 539.818L341.344 539.818C352.883 522.554 359.134 499.049 364.482 478.941L364.482 478.939C365.641 474.581 366.758 470.383 367.876 466.443L367.876 466.443H353.133C351.953 470.674 350.651 474.999 349.125 479.196V480.168H348.767ZM364.136 245.966L364.136 245.966C365.405 250.865 366.626 255.578 367.876 259.967H352.769C350.091 250.061 346.738 239.641 341.118 231.581C335.74 239.672 332.311 250.076 329.554 259.967H314.811C315.93 256.026 317.046 251.828 318.205 247.47L318.205 247.469C323.553 227.361 329.804 203.856 341.343 186.591C353.097 203.36 359.009 226.179 364.136 245.966ZM494.296 274.898C485.651 293.462 468.845 309.991 454.272 324.324L454.271 324.326L454.268 324.329L454.268 324.329L454.266 324.33L454.263 324.334L454.261 324.336L454.258 324.339L454.249 324.347C450.65 327.887 447.187 331.294 444.017 334.564L436.464 321.481C443.703 314.209 451.051 306.095 455.221 297.198C445.526 296.586 434.801 298.819 424.856 301.376L417.485 288.608C421.457 287.607 425.651 286.474 430.005 285.299C450.093 279.876 473.575 273.538 494.296 274.898ZM224.106 340.412L224.106 340.412C204.319 345.539 181.5 351.451 164.731 363.205C181.996 374.744 205.501 380.995 225.609 386.343L225.61 386.343C229.968 387.502 234.166 388.619 238.107 389.737V374.994C228.216 372.237 217.812 368.808 209.721 363.43C217.781 357.81 228.201 354.457 238.107 351.779V336.673C233.718 337.922 229.005 339.143 224.106 340.412ZM458.583 385.998L458.583 385.998C453.684 387.267 448.971 388.488 444.582 389.737V374.631C454.488 371.953 464.908 368.6 472.968 362.98C464.878 357.602 454.473 354.173 444.582 351.416V336.673C448.523 337.791 452.721 338.908 457.078 340.067L457.08 340.067C477.188 345.415 500.693 351.666 517.958 363.205C501.189 374.959 478.37 380.871 458.583 385.998ZM228.416 402.085C213.843 416.418 197.037 432.948 188.392 451.512C209.113 452.872 232.595 446.534 252.683 441.111L252.684 441.11L252.702 441.106C257.049 439.932 261.237 438.802 265.204 437.802L257.832 425.034C247.887 427.591 237.163 429.824 227.467 429.212C231.637 420.315 238.985 412.201 246.224 404.929L238.671 391.846C235.496 395.122 232.026 398.535 228.419 402.083L228.417 402.085L228.416 402.085ZM253.037 210.253C271.6 218.898 288.13 235.704 302.463 250.277L302.464 250.277C306.012 253.885 309.426 257.356 312.702 260.532L299.62 268.085C292.348 260.846 284.234 253.498 275.337 249.328C274.725 259.024 276.958 269.748 279.515 279.693L266.747 287.064C265.745 283.092 264.613 278.898 263.438 274.544C258.015 254.456 251.676 230.974 253.037 210.253ZM380.224 476.133C394.557 490.706 411.087 507.512 429.65 516.157C431.011 495.436 424.672 471.954 419.25 451.866L419.249 451.864C418.074 447.511 416.942 443.317 415.94 439.345L403.173 446.717C405.73 456.662 407.963 467.386 407.35 477.082C398.454 472.911 390.34 465.564 383.067 458.325L369.985 465.878C373.262 469.054 376.676 472.525 380.224 476.133ZM188.392 274.898C208.791 273.103 231.509 279.393 251.208 284.846C256.085 286.197 260.778 287.496 265.204 288.608L257.65 301.691C247.733 299.058 237.032 296.751 227.242 297.588C231.559 306.291 238.856 314.462 246.043 321.796L238.671 334.564C235.818 331.625 232.742 328.56 229.548 325.378L229.546 325.376L229.545 325.375C214.805 310.69 197.574 293.523 188.392 274.898ZM431.48 441.563C451.179 447.017 473.897 453.307 494.296 451.512C485.114 432.887 467.883 415.72 453.143 401.035C449.948 397.852 446.87 394.786 444.017 391.846L436.645 404.614C443.832 411.948 451.129 420.119 455.446 428.822C445.656 429.659 434.955 427.352 425.038 424.719L417.484 437.802C421.91 438.914 426.602 440.213 431.479 441.563L431.48 441.563ZM429.65 210.253C431.445 230.652 425.156 253.37 419.702 273.069L419.702 273.07C418.351 277.947 417.052 282.639 415.94 287.065L402.857 279.511C405.491 269.594 407.797 258.893 406.96 249.103C398.257 253.421 390.086 260.717 382.752 267.904L369.985 260.532C372.923 257.68 375.988 254.603 379.17 251.409L379.172 251.407L379.173 251.406C393.859 236.666 411.025 219.435 429.65 210.253ZM262.985 453.341C257.531 473.04 251.242 495.758 253.037 516.157C271.662 506.975 288.828 489.744 303.514 475.004L303.516 475.002C306.698 471.808 309.764 468.731 312.702 465.878L299.934 458.506C292.601 465.693 284.429 472.989 275.726 477.307C274.89 467.517 277.196 456.816 279.829 446.899L266.747 439.345C265.635 443.771 264.336 448.463 262.985 453.34L262.985 453.341Z" fill="#FFF7E6"/>
<rect x="329.3" y="105" width="24.4012" height="48.0398" rx="12.2006" fill="#FFF7E6"/>
<rect x="329.3" y="573.961" width="24.4012" height="48.0398" rx="12.2006" fill="#FFF7E6"/>
<rect x="295.505" y="124.608" width="7.62537" height="32.7891" rx="3.81268" transform="rotate(-10 295.505 124.608)" fill="#FFF7E6"/>
<rect x="374.292" y="571.425" width="7.62537" height="32.7891" rx="3.81268" transform="rotate(-10 374.292 571.425)" fill="#FFF7E6"/>
<rect x="254.721" y="136.224" width="7.62537" height="32.7891" rx="3.81268" transform="rotate(-20 254.721 136.224)" fill="#FFF7E6"/>
<rect x="409.899" y="562.572" width="7.62537" height="32.7891" rx="3.81268" transform="rotate(-20 409.899 562.572)" fill="#FFF7E6"/>
<rect x="216.573" y="154.746" width="7.62537" height="32.7891" rx="3.81268" transform="rotate(-30 216.573 154.746)" fill="#FFF7E6"/>
<rect x="443.428" y="547.671" width="7.62537" height="32.7891" rx="3.81268" transform="rotate(-30 443.428 547.671)" fill="#FFF7E6"/>
<rect x="182.221" y="179.611" width="7.62537" height="32.7891" rx="3.81268" transform="rotate(-40 182.221 179.611)" fill="#FFF7E6"/>
<rect x="473.861" y="527.173" width="7.62537" height="32.7891" rx="3.81268" transform="rotate(-40 473.861 527.173)" fill="#FFF7E6"/>
<rect x="152.709" y="210.063" width="7.62537" height="32.7891" rx="3.81268" transform="rotate(-50 152.709 210.063)" fill="#FFF7E6"/>
<rect x="500.271" y="501.702" width="7.62537" height="32.7891" rx="3.81268" transform="rotate(-50 500.271 501.702)" fill="#FFF7E6"/>
<rect x="128.933" y="245.177" width="7.62537" height="32.7891" rx="3.81268" transform="rotate(-60 128.933 245.177)" fill="#FFF7E6"/>
<rect x="521.858" y="472.032" width="7.62537" height="32.7891" rx="3.81268" transform="rotate(-60 521.858 472.032)" fill="#FFF7E6"/>
<rect x="111.616" y="283.887" width="7.62537" height="32.7891" rx="3.81268" transform="rotate(-70 111.616 283.887)" fill="#FFF7E6"/>
<rect x="537.964" y="439.065" width="7.62537" height="32.7891" rx="3.81268" transform="rotate(-70 537.964 439.065)" fill="#FFF7E6"/>
<rect x="101.284" y="325.015" width="7.62537" height="32.7891" rx="3.81268" transform="rotate(-80 101.284 325.015)" fill="#FFF7E6"/>
<rect x="548.101" y="403.801" width="7.62537" height="32.7891" rx="3.81268" transform="rotate(-80 548.101 403.801)" fill="#FFF7E6"/>
<rect x="580.393" y="317.505" width="7.62537" height="32.7891" rx="3.81268" transform="rotate(80 580.393 317.505)" fill="#FFF7E6"/>
<rect x="133.576" y="396.292" width="7.62537" height="32.7891" rx="3.81268" transform="rotate(80 133.576 396.292)" fill="#FFF7E6"/>
<rect x="568.777" y="276.721" width="7.62537" height="32.7891" rx="3.81268" transform="rotate(70 568.777 276.721)" fill="#FFF7E6"/>
<rect x="142.429" y="431.899" width="7.62537" height="32.7891" rx="3.81268" transform="rotate(70 142.429 431.899)" fill="#FFF7E6"/>
<rect x="550.255" y="238.573" width="7.62537" height="32.7891" rx="3.81268" transform="rotate(60 550.255 238.573)" fill="#FFF7E6"/>
<rect x="157.331" y="465.428" width="7.62537" height="32.7891" rx="3.81268" transform="rotate(60 157.331 465.428)" fill="#FFF7E6"/>
<rect x="525.39" y="204.222" width="7.62537" height="32.7891" rx="3.81268" transform="rotate(50 525.39 204.222)" fill="#FFF7E6"/>
<rect x="177.828" y="495.861" width="7.62537" height="32.7891" rx="3.81268" transform="rotate(50 177.828 495.861)" fill="#FFF7E6"/>
<rect x="494.938" y="174.709" width="7.62537" height="32.7891" rx="3.81268" transform="rotate(40 494.938 174.709)" fill="#FFF7E6"/>
<rect x="203.299" y="522.271" width="7.62537" height="32.7891" rx="3.81268" transform="rotate(40 203.299 522.271)" fill="#FFF7E6"/>
<rect x="459.824" y="150.934" width="7.62537" height="32.7891" rx="3.81268" transform="rotate(30 459.824 150.934)" fill="#FFF7E6"/>
<rect x="232.969" y="543.858" width="7.62537" height="32.7891" rx="3.81268" transform="rotate(30 232.969 543.858)" fill="#FFF7E6"/>
<rect x="421.115" y="133.616" width="7.62537" height="32.7891" rx="3.81268" transform="rotate(20 421.115 133.616)" fill="#FFF7E6"/>
<rect x="265.937" y="559.964" width="7.62537" height="32.7891" rx="3.81268" transform="rotate(20 265.937 559.964)" fill="#FFF7E6"/>
<rect x="379.986" y="123.284" width="7.62537" height="32.7891" rx="3.81268" transform="rotate(10 379.986 123.284)" fill="#FFF7E6"/>
<rect x="301.2" y="570.101" width="7.62537" height="32.7891" rx="3.81268" transform="rotate(10 301.2 570.101)" fill="#FFF7E6"/>
<rect x="83" y="375.701" width="24.4012" height="48.0398" rx="12.2006" transform="rotate(-90 83 375.701)" fill="#FFF7E6"/>
<rect x="551.961" y="375.701" width="24.4012" height="48.0398" rx="12.2006" transform="rotate(-90 551.961 375.701)" fill="#FFF7E6"/>
</svg>
